<?xml version="1.0" encoding="UTF-8"?>
<svg version="1.1" xmlns="http://www.w3.org/2000/svg" width="59" height="37">
<path d="M0 0 C1.14275391 -0.03738281 2.28550781 -0.07476563 3.46289062 -0.11328125 C12.99670817 -0.21139944 19.36561695 2.36994385 27.0625 7.8125 C29.92402007 10.95199631 29.98577008 14.17265122 30.1875 18.3125 C29.97754908 22.64844288 29.75203187 25.94879295 27.0625 29.4375 C18.81319565 36.62385835 10.7281156 38.20027033 0 38.0625 C-1.15048828 38.09021484 -2.30097656 38.11792969 -3.48632812 38.14648438 C-11.62786115 38.12342054 -18.07797722 36.49898749 -24.5625 31.375 C-25.86108398 29.17456055 -25.86108398 29.17456055 -26.5625 27.375 C-27.2225 27.375 -27.8825 27.375 -28.5625 27.375 C-30.80155814 22.89688371 -30.15832736 17.22260515 -29.5625 12.375 C-26.83110441 6.50905079 -21.36249722 3.67521212 -15.5625 1.375 C-10.51970604 -0.30593132 -5.28038924 0.06400472 0 0 Z " fill="#A4BFE0" transform="translate(29.5625,-0.375)"/>
<path d="M0 0 C0.33 0.66 0.66 1.32 1 2 C7.27 2 13.54 2 20 2 C21.88343932 5.76687864 22.22057835 7.02958963 22 11 C22.66 11 23.32 11 24 11 C24.268125 10.2575 24.53625 9.515 24.8125 8.75 C26.91821561 3.87360595 26.91821561 3.87360595 29 2 C31.75363638 1.65647705 34.20703942 1.81685504 37 2 C36.25524567 7.23866964 34.92682174 12.22893795 33.5 17.3125 C33.27441406 18.13556641 33.04882812 18.95863281 32.81640625 19.80664062 C31.12565179 25.87434821 31.12565179 25.87434821 30 27 C27.66702567 27.04092937 25.33294775 27.04241723 23 27 C23 25.02 23 23.04 23 21 C22.21625 21.99 21.4325 22.98 20.625 24 C19.75875 24.99 18.8925 25.98 18 27 C17.34 27 16.68 27 16 27 C16 24.69 16 22.38 16 20 C15.34 20 14.68 20 14 20 C13.855625 20.78375 13.71125 21.5675 13.5625 22.375 C13 25 13 25 12 27 C6.72 27 1.44 27 -4 27 C-3.28400038 21.98800263 -2.80796094 18.96713382 -0.9375 14.5625 C-0.39416016 13.26505859 -0.39416016 13.26505859 0.16015625 11.94140625 C0.43730469 11.30074219 0.71445313 10.66007813 1 10 C-1.31 9.67 -3.62 9.34 -6 9 C-5.01 6.69 -4.02 4.38 -3 2 C-2.01 2 -1.02 2 0 2 C0 1.34 0 0.68 0 0 Z " fill="#FAFCFD" transform="translate(13,4)"/>
<path d="M0 0 C1.81467773 -0.01836914 1.81467773 -0.01836914 3.66601562 -0.03710938 C5.39561523 -0.04000977 5.39561523 -0.04000977 7.16015625 -0.04296875 C8.74969116 -0.04913208 8.74969116 -0.04913208 10.37133789 -0.05541992 C12.9375 0.1875 12.9375 0.1875 14.9375 2.1875 C14.2775 2.8475 13.6175 3.5075 12.9375 4.1875 C12.2775 3.8575 11.6175 3.5275 10.9375 3.1875 C9.27130554 3.1478287 7.60358987 3.14365553 5.9375 3.1875 C5.6075 4.1775 5.2775 5.1675 4.9375 6.1875 C4.4425 5.1975 4.4425 5.1975 3.9375 4.1875 C1.91286745 3.53536708 1.91286745 3.53536708 -0.0625 3.1875 C-0.0625 4.1775 -0.0625 5.1675 -0.0625 6.1875 C-1.85107422 6.17009766 -1.85107422 6.17009766 -3.67578125 6.15234375 C-5.24218594 6.14296408 -6.80859231 6.13386407 -8.375 6.125 C-9.16068359 6.11662109 -9.94636719 6.10824219 -10.75585938 6.09960938 C-11.8918457 6.09477539 -11.8918457 6.09477539 -13.05078125 6.08984375 C-13.74727783 6.08460693 -14.44377441 6.07937012 -15.16137695 6.07397461 C-17.28747968 6.11854009 -17.28747968 6.11854009 -20.0625 7.1875 C-21.28119929 9.69197516 -21.28119929 9.69197516 -22.0625 12.1875 C-19.7525 12.5175 -17.4425 12.8475 -15.0625 13.1875 C-16.82713072 19.29487442 -18.75807475 25.26183507 -21.0625 31.1875 C-15.7825 31.1875 -10.5025 31.1875 -5.0625 31.1875 C-5.7225 32.5075 -6.3825 33.8275 -7.0625 35.1875 C-7.0625 35.8475 -7.0625 36.5075 -7.0625 37.1875 C-14.05501186 38.11983491 -19.43864385 35.25383712 -25.0625 31.1875 C-26.38671875 28.984375 -26.38671875 28.984375 -27.0625 27.1875 C-27.7225 27.1875 -28.3825 27.1875 -29.0625 27.1875 C-31.30155814 22.70938371 -30.65832736 17.03510515 -30.0625 12.1875 C-27.33110441 6.32155079 -21.86249722 3.48771212 -16.0625 1.1875 C-10.88911386 -0.53696205 -5.4148547 0.0028941 0 0 Z " fill="#6F9BCF" transform="translate(30.0625,-0.1875)"/>
<path d="M0 0 C0.33 0.66 0.66 1.32 1 2 C7.27 2 13.54 2 20 2 C20.66 3.98 21.32 5.96 22 8 C21.27554688 7.95875 20.55109375 7.9175 19.8046875 7.875 C16.29403121 8.024788 14.12909051 8.34519252 11 10 C7.84562122 14.75550766 6.57293128 20.5787903 5 26 C4 27 4 27 2.15234375 27.09765625 C0.1015625 27.06510417 -1.94921875 27.03255208 -4 27 C-3.46246904 20.81839396 -1.45417612 15.673142 1 10 C-1.31 9.67 -3.62 9.34 -6 9 C-5.01 6.69 -4.02 4.38 -3 2 C-2.01 2 -1.02 2 0 2 C0 1.34 0 0.68 0 0 Z " fill="#F2F5FA" transform="translate(13,4)"/>
<path d="M0 0 C0.66 0.33 1.32 0.66 2 1 C1.67 3.31 1.34 5.62 1 8 C2.98 8 4.96 8 7 8 C7 9.32 7 10.64 7 12 C-2.08502374 18.69422802 -12.28880009 17.50671615 -23 17 C-23.33 15.35 -23.66 13.7 -24 12 C-23.01 12 -22.02 12 -21 12 C-20.7834375 10.8553125 -20.7834375 10.8553125 -20.5625 9.6875 C-20 7 -20 7 -19 4 C-18.34 4 -17.68 4 -17 4 C-17 6.31 -17 8.62 -17 11 C-16.236875 10.21625 -15.47375 9.4325 -14.6875 8.625 C-12 6 -12 6 -9 4 C-9.33 6.31 -9.66 8.62 -10 11 C-6.535 10.505 -6.535 10.505 -3 10 C-2.01 6.7 -1.02 3.4 0 0 Z " fill="#7BA2D2" transform="translate(46,20)"/>
<path d="M0 0 C0.66 0.33 1.32 0.66 2 1 C1.34 1.66 0.68 2.32 0 3 C0.33 3.66 0.66 4.32 1 5 C-0.32 5 -1.64 5 -3 5 C-3.33 7.64 -3.66 10.28 -4 13 C-1.69 13 0.62 13 3 13 C3.33 11.68 3.66 10.36 4 9 C4.02699725 11.27076842 4.04639453 13.54162821 4.0625 15.8125 C4.07410156 17.07707031 4.08570313 18.34164063 4.09765625 19.64453125 C4 23 4 23 3 26 C8.28 26 13.56 26 19 26 C18.34 27.32 17.68 28.64 17 30 C17 30.66 17 31.32 17 32 C10.00748814 32.93233491 4.62385615 30.06633712 -1 26 C-2.32421875 23.796875 -2.32421875 23.796875 -3 22 C-3.66 22 -4.32 22 -5 22 C-7.23094263 17.53811473 -6.63639476 11.82742691 -6 7 C-4.40436205 4.12506049 -2.53619165 2.0757521 0 0 Z " fill="#8EB0D9" transform="translate(6,5)"/>
<path d="M0 0 C2.625 -0.1875 2.625 -0.1875 5 0 C4.67 0.99 4.34 1.98 4 3 C3.01 3.33 2.02 3.66 1 4 C-0.21869929 6.50447516 -0.21869929 6.50447516 -1 9 C1.31 9.33 3.62 9.66 6 10 C5.55123384 11.64846769 5.09069512 13.29373455 4.625 14.9375 C4.36976562 15.85402344 4.11453125 16.77054688 3.8515625 17.71484375 C3 20 3 20 1 21 C0.67 19.02 0.34 17.04 0 15 C-2.31 15 -4.62 15 -7 15 C-6.50700935 7.60514019 -6.50700935 7.60514019 -4.0625 4.6875 C-3.381875 4.130625 -2.70125 3.57375 -2 3 C-1.34 2.01 -0.68 1.02 0 0 Z " fill="#4C82C4" transform="translate(9,3)"/>
<path d="M0 0 C0 0.99 0 1.98 0 3 C-1.216875 3 -2.43375 3 -3.6875 3 C-6.59277712 3.32395125 -7.65191774 3.5914568 -9.57421875 5.84765625 C-10.42728832 7.30018011 -11.235682 8.78008062 -11.9921875 10.28515625 C-12.32476562 10.85105469 -12.65734375 11.41695312 -13 12 C-13.66 12 -14.32 12 -15 12 C-15.10957031 11.43410156 -15.21914063 10.86820313 -15.33203125 10.28515625 C-15.49058594 9.55167969 -15.64914063 8.81820313 -15.8125 8.0625 C-15.96332031 7.33160156 -16.11414062 6.60070312 -16.26953125 5.84765625 C-16.51058594 5.23792969 -16.75164063 4.62820312 -17 4 C-17.99 3.67 -18.98 3.34 -20 3 C-20 2.01 -20 1.02 -20 0 C-18.948125 0.309375 -18.948125 0.309375 -17.875 0.625 C-11.74342217 1.42477102 -6.59754417 -1.17289674 0 0 Z " fill="#477FC2" transform="translate(50,3)"/>
<path d="M0 0 C0.66 0.33 1.32 0.66 2 1 C1.34 1.66 0.68 2.32 0 3 C0.33 3.66 0.66 4.32 1 5 C-0.32 5 -1.64 5 -3 5 C-3.33 7.64 -3.66 10.28 -4 13 C-1.69 13 0.62 13 3 13 C3.33 11.68 3.66 10.36 4 9 C4 12.3 4 15.6 4 19 C3.67 17.68 3.34 16.36 3 15 C0.69 15 -1.62 15 -4 15 C-3.67 17.31 -3.34 19.62 -3 22 C-3.66 22 -4.32 22 -5 22 C-7.23094263 17.53811473 -6.63639476 11.82742691 -6 7 C-4.40436205 4.12506049 -2.53619165 2.0757521 0 0 Z " fill="#9CB9DD" transform="translate(6,5)"/>
<path d="M0 0 C3.54762911 1.97090506 6.4784123 3.79459191 9 7 C9.390625 10.453125 9.390625 10.453125 9.25 14.25 C9.21390625 15.51328125 9.1778125 16.7765625 9.140625 18.078125 C9.07101563 19.52445313 9.07101563 19.52445313 9 21 C8.01 21.33 7.02 21.66 6 22 C6.33 18.37 6.66 14.74 7 11 C6.34 11 5.68 11 5 11 C4.67 9.68 4.34 8.36 4 7 C2.68 6.67 1.36 6.34 0 6 C0 4.02 0 2.04 0 0 Z " fill="#7CA3D3" transform="translate(50,4)"/>
<path d="M0 0 C0.66 0.33 1.32 0.66 2 1 C1.67 3.31 1.34 5.62 1 8 C2.98 8 4.96 8 7 8 C7 9.32 7 10.64 7 12 C1.375 15 1.375 15 -2 15 C-3.08056059 11.02840314 -2.85815614 8.57446843 -1.5625 4.6875 C-1.27503906 3.80449219 -0.98757812 2.92148437 -0.69140625 2.01171875 C-0.46324219 1.34785156 -0.23507813 0.68398438 0 0 Z " fill="#5387C6" transform="translate(46,20)"/>
<path d="M0 0 C0.33 0.66 0.66 1.32 1 2 C3.97 2 6.94 2 10 2 C9.67 3.32 9.34 4.64 9 6 C9.66 6.33 10.32 6.66 11 7 C8.11788698 7.96070434 6.30149956 8.10581883 3.3125 8.0625 C2.10013672 8.04896484 2.10013672 8.04896484 0.86328125 8.03515625 C-0.05904297 8.01775391 -0.05904297 8.01775391 -1 8 C-0.67 5.36 -0.34 2.72 0 0 Z " fill="#9CB9DD" transform="translate(35,29)"/>
<path d="M0 0 C2.31 0 4.62 0 7 0 C7.33 2.31 7.66 4.62 8 7 C5.69 7.33 3.38 7.66 1 8 C0.67 5.36 0.34 2.72 0 0 Z " fill="#477FC2" transform="translate(2,20)"/>
<path d="M0 0 C1.65 0 3.3 0 5 0 C6.25664978 2.90600261 7 4.79604584 7 8 C4.69 8 2.38 8 0 8 C0 5.36 0 2.72 0 0 Z " fill="#4B82C3" transform="translate(49,10)"/>
<path d="M0 0 C2.31 0 4.62 0 7 0 C6.34 2.31 5.68 4.62 5 7 C3.02 7 1.04 7 -1 7 C-0.67 4.69 -0.34 2.38 0 0 Z " fill="#487FC2" transform="translate(49,20)"/>
<path d="M0 0 C2.475 0.495 2.475 0.495 5 1 C5 1.66 5 2.32 5 3 C5.66 3 6.32 3 7 3 C8.125 5.8125 8.125 5.8125 9 9 C8.01 10.485 8.01 10.485 7 12 C6.34 12 5.68 12 5 12 C4.89042969 11.43410156 4.78085937 10.86820313 4.66796875 10.28515625 C4.50941406 9.55167969 4.35085937 8.81820313 4.1875 8.0625 C4.03667969 7.33160156 3.88585938 6.60070312 3.73046875 5.84765625 C3.48941406 5.23792969 3.24835937 4.62820312 3 4 C2.01 3.67 1.02 3.34 0 3 C0 2.01 0 1.02 0 0 Z " fill="#6191CA" transform="translate(30,3)"/>
<path d="M0 0 C1.62463842 -0.05395478 3.24978541 -0.09277195 4.875 -0.125 C5.77992187 -0.14820312 6.68484375 -0.17140625 7.6171875 -0.1953125 C10 -0 10 -0 12 2 C11.34 2.66 10.68 3.32 10 4 C9.34 3.67 8.68 3.34 8 3 C6.33380554 2.9603287 4.66608987 2.95615553 3 3 C2.67 3.99 2.34 4.98 2 6 C0 3 0 3 0 0 Z " fill="#94B4DB" transform="translate(33,0)"/>
<path d="M0 0 C0.66 0 1.32 0 2 0 C1.67 3.63 1.34 7.26 1 11 C-0.65 11 -2.3 11 -4 11 C-4.33 10.01 -4.66 9.02 -5 8 C-4.01 8 -3.02 8 -2 8 C-1.855625 7.236875 -1.71125 6.47375 -1.5625 5.6875 C-1 3 -1 3 0 0 Z " fill="#4D83C4" transform="translate(27,24)"/>
<path d="M0 0 C0.66 0.99 1.32 1.98 2 3 C1.67 3.99 1.34 4.98 1 6 C3.31 6 5.62 6 8 6 C8 6.66 8 7.32 8 8 C5.69 8 3.38 8 1 8 C1 9.65 1 11.3 1 13 C-1.69549858 7.60900283 -1.88883158 5.99981796 0 0 Z " fill="#82A8D5" transform="translate(48,12)"/>
<path d="M0 0 C1.54578627 3.09157253 0.60277633 5.68473019 0 9 C-1 10 -1 10 -3.5625 10.0625 C-4.366875 10.041875 -5.17125 10.02125 -6 10 C-5.49477778 5.62140745 -2.82172778 3.18348776 0 0 Z " fill="#447DC1" transform="translate(36,24)"/>
<path d="M0 0 C1.11375 0.1546875 1.11375 0.1546875 2.25 0.3125 C1.92 1.3025 1.59 2.2925 1.25 3.3125 C0.26 3.6425 -0.73 3.9725 -1.75 4.3125 C-2.08 4.9725 -2.41 5.6325 -2.75 6.3125 C-4.07 5.9825 -5.39 5.6525 -6.75 5.3125 C-3.42692308 0.38942308 -3.42692308 0.38942308 0 0 Z " fill="#5387C6" transform="translate(11.75,2.6875)"/>
<path d="M0 0 C-0.99 1.485 -0.99 1.485 -2 3 C-5 3.125 -5 3.125 -8 3 C-8.99 3.495 -8.99 3.495 -10 4 C-10.66 3.34 -11.32 2.68 -12 2 C-7.8794254 0.00214565 -4.54805635 -0.17835515 0 0 Z " fill="#8FB0D9" transform="translate(24,0)"/>
<path d="M0 0 C2.31 0 4.62 0 7 0 C7 0.99 7 1.98 7 3 C6.01 3 5.02 3 4 3 C4 3.66 4 4.32 4 5 C3.34 5 2.68 5 2 5 C1.34 3.35 0.68 1.7 0 0 Z " fill="#427CC0" transform="translate(14,32)"/>
<path d="M0 0 C2.97 0.495 2.97 0.495 6 1 C5.67 1.99 5.34 2.98 5 4 C2.69 4 0.38 4 -2 4 C-1.34 2.68 -0.68 1.36 0 0 Z " fill="#427CC1" transform="translate(16,2)"/>
<path d="M0 0 C2.97 0.495 2.97 0.495 6 1 C6 1.99 6 2.98 6 4 C4.02 4 2.04 4 0 4 C0 2.68 0 1.36 0 0 Z " fill="#6D98CE" transform="translate(44,2)"/>
<path d="M0 0 C0.99 0 1.98 0 3 0 C2.67 1.32 2.34 2.64 2 4 C1.01 4 0.02 4 -1 4 C-1.33 4.99 -1.66 5.98 -2 7 C-2.33 6.34 -2.66 5.68 -3 5 C-1.75 2.375 -1.75 2.375 0 0 Z " fill="#467EC2" transform="translate(47,28)"/>
<path d="M0 0 C1.98 0 3.96 0 6 0 C5.67 0.99 5.34 1.98 5 3 C3.02 3 1.04 3 -1 3 C-0.67 2.01 -0.34 1.02 0 0 Z " fill="#3E78BF" transform="translate(37,32)"/>
<path d="M0 0 C-0.99 1.32 -1.98 2.64 -3 4 C-4.32 2.68 -5.64 1.36 -7 0 C-3.98968256 -0.93423645 -3.13349732 -1.04449911 0 0 Z " fill="#709ACF" transform="translate(10,28)"/>
<path d="M0 0 C1.65 0 3.3 0 5 0 C5.33 1.65 5.66 3.3 6 5 C5.01 4.01 4.02 3.02 3 2 C2.01 2.66 1.02 3.32 0 4 C0 2.68 0 1.36 0 0 Z " fill="#427CC0" transform="translate(49,10)"/>
</svg>
